<svg width="93" height="181" viewBox="0 0 93 181" fill="none" xmlns="http://www.w3.org/2000/svg">
<path id="Effect" d="M86.9744 9.80723L89.7549 90.9979C82.7109 92.8516 69.624 97.4487 71.4036 105.457C73.1831 113.464 80.3012 112.13 90.8671 112.686C91.2378 126.959 92.5354 158.286 92.5354 167.184C92.5354 176.081 86.2329 178.676 83.0817 178.862C67.8816 179.233 34.4785 180.085 22.4667 180.53C10.4549 180.975 6.33977 174.413 5.78366 171.076C12.4569 168.296 13.013 161.067 13.013 157.73C13.013 155.061 7.45197 148.832 4.67146 146.052V129.369C6.0061 120.026 4.11536 116.949 3.00316 116.579L1.89096 73.2027C1.33486 58.7441 0.222656 26.9351 0.222656 15.3682C0.222656 3.80134 8.9349 0.724249 13.013 0.909616C30.4375 0.538883 66.7323 0.353516 74.7402 0.353516C82.748 0.353516 86.2329 6.65599 86.9744 9.80723Z" fill="white"/>
</svg>
